<mxfile host="app.diagrams.net" agent="Mozilla/5.0 (Windows NT 10.0; Win64; x64; rv:143.0) Gecko/20100101 Firefox/143.0" version="28.2.5">
  <diagram name="PÃ¡gina-1" id="3--EAiXcK8z4-fVJ1XLn">
    <mxGraphModel dx="1111" dy="467" grid="1" gridSize="10" guides="1" tooltips="1" connect="1" arrows="1" fold="1" page="1" pageScale="1" pageWidth="827" pageHeight="1169" math="0" shadow="0">
      <root>
        <mxCell id="0" />
        <mxCell id="1" parent="0" />
        <mxCell id="TipQKyZSvUJXhmq09o5P-2" value="" style="rounded=0;whiteSpace=wrap;html=1;" vertex="1" parent="1">
          <mxGeometry x="240" y="30" width="60" height="60" as="geometry" />
        </mxCell>
        <mxCell id="TipQKyZSvUJXhmq09o5P-1" value="&lt;font style=&quot;font-size: 18px;&quot;&gt;0&lt;/font&gt;" style="rounded=0;whiteSpace=wrap;html=1;" vertex="1" parent="1">
          <mxGeometry x="250" y="40" width="40" height="40" as="geometry" />
        </mxCell>
        <mxCell id="TipQKyZSvUJXhmq09o5P-3" value="" style="endArrow=classic;html=1;rounded=0;exitX=0.5;exitY=1;exitDx=0;exitDy=0;" edge="1" parent="1" source="TipQKyZSvUJXhmq09o5P-2">
          <mxGeometry width="50" height="50" relative="1" as="geometry">
            <mxPoint x="400" y="250" as="sourcePoint" />
            <mxPoint x="270" y="160" as="targetPoint" />
          </mxGeometry>
        </mxCell>
        <mxCell id="TipQKyZSvUJXhmq09o5P-4" value="&lt;font style=&quot;font-size: 18px;&quot;&gt;1&lt;/font&gt;" style="rounded=0;whiteSpace=wrap;html=1;" vertex="1" parent="1">
          <mxGeometry x="250" y="160" width="40" height="40" as="geometry" />
        </mxCell>
        <mxCell id="TipQKyZSvUJXhmq09o5P-5" value="" style="endArrow=none;html=1;rounded=0;" edge="1" parent="1">
          <mxGeometry width="50" height="50" relative="1" as="geometry">
            <mxPoint x="250" y="130" as="sourcePoint" />
            <mxPoint x="290" y="130" as="targetPoint" />
          </mxGeometry>
        </mxCell>
        <mxCell id="TipQKyZSvUJXhmq09o5P-6" value="BP" style="text;html=1;align=center;verticalAlign=middle;whiteSpace=wrap;rounded=0;" vertex="1" parent="1">
          <mxGeometry x="290" y="120" width="60" height="20" as="geometry" />
        </mxCell>
        <mxCell id="TipQKyZSvUJXhmq09o5P-8" value="" style="endArrow=none;html=1;rounded=0;" edge="1" parent="1">
          <mxGeometry width="50" height="50" relative="1" as="geometry">
            <mxPoint x="250" y="260" as="sourcePoint" />
            <mxPoint x="290" y="260" as="targetPoint" />
          </mxGeometry>
        </mxCell>
        <mxCell id="TipQKyZSvUJXhmq09o5P-9" value="BP&#39;" style="text;html=1;align=center;verticalAlign=middle;whiteSpace=wrap;rounded=0;" vertex="1" parent="1">
          <mxGeometry x="290" y="250" width="60" height="20" as="geometry" />
        </mxCell>
        <mxCell id="TipQKyZSvUJXhmq09o5P-11" value="" style="endArrow=none;html=1;rounded=0;exitX=1;exitY=0.5;exitDx=0;exitDy=0;" edge="1" parent="1" source="TipQKyZSvUJXhmq09o5P-4">
          <mxGeometry width="50" height="50" relative="1" as="geometry">
            <mxPoint x="400" y="250" as="sourcePoint" />
            <mxPoint x="370" y="180" as="targetPoint" />
          </mxGeometry>
        </mxCell>
        <mxCell id="TipQKyZSvUJXhmq09o5P-12" value="Aciona contato CP se B1 estiver acionado&amp;nbsp;" style="rounded=0;whiteSpace=wrap;html=1;" vertex="1" parent="1">
          <mxGeometry x="410" y="40" width="130" height="40" as="geometry" />
        </mxCell>
        <mxCell id="TipQKyZSvUJXhmq09o5P-13" value="&lt;font style=&quot;font-size: 18px;&quot;&gt;CS&lt;/font&gt;" style="rounded=0;whiteSpace=wrap;html=1;" vertex="1" parent="1">
          <mxGeometry x="370" y="40" width="40" height="40" as="geometry" />
        </mxCell>
        <mxCell id="TipQKyZSvUJXhmq09o5P-14" value="Aciona contato CL se B2 estiver acionado&amp;nbsp;" style="rounded=0;whiteSpace=wrap;html=1;" vertex="1" parent="1">
          <mxGeometry x="410" y="80" width="130" height="40" as="geometry" />
        </mxCell>
        <mxCell id="TipQKyZSvUJXhmq09o5P-15" value="&lt;font style=&quot;font-size: 18px;&quot;&gt;CS&lt;/font&gt;" style="rounded=0;whiteSpace=wrap;html=1;" vertex="1" parent="1">
          <mxGeometry x="370" y="80" width="40" height="40" as="geometry" />
        </mxCell>
        <mxCell id="TipQKyZSvUJXhmq09o5P-16" value="Aciona contato CHOC se B3 estiver acionado&amp;nbsp;" style="rounded=0;whiteSpace=wrap;html=1;" vertex="1" parent="1">
          <mxGeometry x="410" y="120" width="130" height="40" as="geometry" />
        </mxCell>
        <mxCell id="TipQKyZSvUJXhmq09o5P-17" value="&lt;font style=&quot;font-size: 18px;&quot;&gt;CS&lt;/font&gt;" style="rounded=0;whiteSpace=wrap;html=1;" vertex="1" parent="1">
          <mxGeometry x="370" y="120" width="40" height="40" as="geometry" />
        </mxCell>
        <mxCell id="TipQKyZSvUJXhmq09o5P-18" value="Aciona contato AMRG se A1 estiver acionado&amp;nbsp;" style="rounded=0;whiteSpace=wrap;html=1;" vertex="1" parent="1">
          <mxGeometry x="410" y="160" width="130" height="40" as="geometry" />
        </mxCell>
        <mxCell id="TipQKyZSvUJXhmq09o5P-19" value="&lt;font style=&quot;font-size: 18px;&quot;&gt;CS&lt;/font&gt;" style="rounded=0;whiteSpace=wrap;html=1;" vertex="1" parent="1">
          <mxGeometry x="370" y="160" width="40" height="40" as="geometry" />
        </mxCell>
        <mxCell id="TipQKyZSvUJXhmq09o5P-22" value="Aciona contato DOCE se A2 estiver acionado&amp;nbsp;" style="rounded=0;whiteSpace=wrap;html=1;" vertex="1" parent="1">
          <mxGeometry x="410" y="200" width="130" height="40" as="geometry" />
        </mxCell>
        <mxCell id="TipQKyZSvUJXhmq09o5P-23" value="&lt;font style=&quot;font-size: 18px;&quot;&gt;CS&lt;/font&gt;" style="rounded=0;whiteSpace=wrap;html=1;" vertex="1" parent="1">
          <mxGeometry x="370" y="200" width="40" height="40" as="geometry" />
        </mxCell>
        <mxCell id="TipQKyZSvUJXhmq09o5P-24" value="Aciona contato EXTR se A3 estiver acionado&amp;nbsp;" style="rounded=0;whiteSpace=wrap;html=1;" vertex="1" parent="1">
          <mxGeometry x="410" y="240" width="130" height="40" as="geometry" />
        </mxCell>
        <mxCell id="TipQKyZSvUJXhmq09o5P-25" value="&lt;font style=&quot;font-size: 18px;&quot;&gt;CS&lt;/font&gt;" style="rounded=0;whiteSpace=wrap;html=1;" vertex="1" parent="1">
          <mxGeometry x="370" y="240" width="40" height="40" as="geometry" />
        </mxCell>
        <mxCell id="TipQKyZSvUJXhmq09o5P-26" value="OBS: Intertravamento entre CP,CL e CHOC" style="text;html=1;align=center;verticalAlign=middle;whiteSpace=wrap;rounded=0;" vertex="1" parent="1">
          <mxGeometry x="560" y="85" width="170" height="30" as="geometry" />
        </mxCell>
        <mxCell id="TipQKyZSvUJXhmq09o5P-27" value="OBS: Intertravamento entre AMRG, DOCE e EXTR" style="text;html=1;align=center;verticalAlign=middle;whiteSpace=wrap;rounded=0;" vertex="1" parent="1">
          <mxGeometry x="560" y="205" width="170" height="30" as="geometry" />
        </mxCell>
        <mxCell id="TipQKyZSvUJXhmq09o5P-28" value="" style="endArrow=classic;html=1;rounded=0;exitX=0.5;exitY=1;exitDx=0;exitDy=0;entryX=0.5;entryY=0;entryDx=0;entryDy=0;" edge="1" parent="1" target="TipQKyZSvUJXhmq09o5P-31">
          <mxGeometry width="50" height="50" relative="1" as="geometry">
            <mxPoint x="269.5" y="200" as="sourcePoint" />
            <mxPoint x="269.5" y="270" as="targetPoint" />
          </mxGeometry>
        </mxCell>
        <mxCell id="TipQKyZSvUJXhmq09o5P-31" value="&lt;font style=&quot;font-size: 18px;&quot;&gt;2&lt;/font&gt;" style="rounded=0;whiteSpace=wrap;html=1;" vertex="1" parent="1">
          <mxGeometry x="250" y="320" width="40" height="40" as="geometry" />
        </mxCell>
        <mxCell id="TipQKyZSvUJXhmq09o5P-33" value="Aciona AC" style="rounded=0;whiteSpace=wrap;html=1;" vertex="1" parent="1">
          <mxGeometry x="330" y="320" width="120" height="40" as="geometry" />
        </mxCell>
        <mxCell id="TipQKyZSvUJXhmq09o5P-35" value="" style="endArrow=none;html=1;rounded=0;exitX=1;exitY=0.5;exitDx=0;exitDy=0;" edge="1" parent="1" source="TipQKyZSvUJXhmq09o5P-31">
          <mxGeometry width="50" height="50" relative="1" as="geometry">
            <mxPoint x="370" y="300" as="sourcePoint" />
            <mxPoint x="330" y="340" as="targetPoint" />
          </mxGeometry>
        </mxCell>
        <mxCell id="TipQKyZSvUJXhmq09o5P-37" value="" style="endArrow=none;html=1;rounded=0;" edge="1" parent="1">
          <mxGeometry width="50" height="50" relative="1" as="geometry">
            <mxPoint x="250" y="400" as="sourcePoint" />
            <mxPoint x="290" y="400" as="targetPoint" />
          </mxGeometry>
        </mxCell>
        <mxCell id="TipQKyZSvUJXhmq09o5P-38" value="SC" style="text;html=1;align=center;verticalAlign=middle;whiteSpace=wrap;rounded=0;" vertex="1" parent="1">
          <mxGeometry x="290" y="390" width="60" height="20" as="geometry" />
        </mxCell>
        <mxCell id="TipQKyZSvUJXhmq09o5P-39" value="" style="endArrow=none;html=1;rounded=0;exitX=0.5;exitY=1;exitDx=0;exitDy=0;" edge="1" parent="1" source="TipQKyZSvUJXhmq09o5P-31">
          <mxGeometry width="50" height="50" relative="1" as="geometry">
            <mxPoint x="400" y="440" as="sourcePoint" />
            <mxPoint x="270" y="440" as="targetPoint" />
          </mxGeometry>
        </mxCell>
        <mxCell id="TipQKyZSvUJXhmq09o5P-40" value="" style="endArrow=none;html=1;rounded=0;" edge="1" parent="1">
          <mxGeometry width="50" height="50" relative="1" as="geometry">
            <mxPoint x="50" y="440" as="sourcePoint" />
            <mxPoint x="490" y="440" as="targetPoint" />
            <Array as="points" />
          </mxGeometry>
        </mxCell>
        <mxCell id="TipQKyZSvUJXhmq09o5P-41" value="" style="endArrow=none;html=1;rounded=0;" edge="1" parent="1">
          <mxGeometry width="50" height="50" relative="1" as="geometry">
            <mxPoint x="50" y="450" as="sourcePoint" />
            <mxPoint x="490" y="450" as="targetPoint" />
            <Array as="points" />
          </mxGeometry>
        </mxCell>
        <mxCell id="TipQKyZSvUJXhmq09o5P-42" value="&lt;font style=&quot;font-size: 18px;&quot;&gt;4&lt;/font&gt;" style="rounded=0;whiteSpace=wrap;html=1;" vertex="1" parent="1">
          <mxGeometry x="250" y="560" width="40" height="40" as="geometry" />
        </mxCell>
        <mxCell id="TipQKyZSvUJXhmq09o5P-43" value="Aciona VR2 por 3 segundos" style="rounded=0;whiteSpace=wrap;html=1;" vertex="1" parent="1">
          <mxGeometry x="310" y="560" width="120" height="40" as="geometry" />
        </mxCell>
        <mxCell id="TipQKyZSvUJXhmq09o5P-44" value="" style="endArrow=none;html=1;rounded=0;exitX=1;exitY=0.5;exitDx=0;exitDy=0;" edge="1" parent="1" source="TipQKyZSvUJXhmq09o5P-42">
          <mxGeometry width="50" height="50" relative="1" as="geometry">
            <mxPoint x="370" y="540" as="sourcePoint" />
            <mxPoint x="310" y="580" as="targetPoint" />
          </mxGeometry>
        </mxCell>
        <mxCell id="TipQKyZSvUJXhmq09o5P-45" value="" style="endArrow=classic;html=1;rounded=0;entryX=0.5;entryY=0;entryDx=0;entryDy=0;" edge="1" parent="1" target="TipQKyZSvUJXhmq09o5P-42">
          <mxGeometry width="50" height="50" relative="1" as="geometry">
            <mxPoint x="270" y="450" as="sourcePoint" />
            <mxPoint x="450" y="510" as="targetPoint" />
          </mxGeometry>
        </mxCell>
        <mxCell id="TipQKyZSvUJXhmq09o5P-46" value="Aciona VR5 por 7 segundos" style="rounded=0;whiteSpace=wrap;html=1;" vertex="1" parent="1">
          <mxGeometry x="310" y="600" width="120" height="40" as="geometry" />
        </mxCell>
        <mxCell id="TipQKyZSvUJXhmq09o5P-49" value="&lt;font style=&quot;font-size: 18px;&quot;&gt;5&lt;/font&gt;" style="rounded=0;whiteSpace=wrap;html=1;" vertex="1" parent="1">
          <mxGeometry x="450" y="560" width="40" height="40" as="geometry" />
        </mxCell>
        <mxCell id="TipQKyZSvUJXhmq09o5P-50" value="Aciona VR3 por 3 segundos" style="rounded=0;whiteSpace=wrap;html=1;" vertex="1" parent="1">
          <mxGeometry x="510" y="560" width="120" height="40" as="geometry" />
        </mxCell>
        <mxCell id="TipQKyZSvUJXhmq09o5P-51" value="" style="endArrow=none;html=1;rounded=0;exitX=1;exitY=0.5;exitDx=0;exitDy=0;" edge="1" parent="1" source="TipQKyZSvUJXhmq09o5P-49">
          <mxGeometry width="50" height="50" relative="1" as="geometry">
            <mxPoint x="570" y="540" as="sourcePoint" />
            <mxPoint x="510" y="580" as="targetPoint" />
          </mxGeometry>
        </mxCell>
        <mxCell id="TipQKyZSvUJXhmq09o5P-52" value="" style="endArrow=classic;html=1;rounded=0;entryX=0.5;entryY=0;entryDx=0;entryDy=0;" edge="1" parent="1" target="TipQKyZSvUJXhmq09o5P-49">
          <mxGeometry width="50" height="50" relative="1" as="geometry">
            <mxPoint x="470" y="450" as="sourcePoint" />
            <mxPoint x="650" y="510" as="targetPoint" />
          </mxGeometry>
        </mxCell>
        <mxCell id="TipQKyZSvUJXhmq09o5P-53" value="Aciona VR5 por 6 segundos" style="rounded=0;whiteSpace=wrap;html=1;" vertex="1" parent="1">
          <mxGeometry x="510" y="600" width="120" height="40" as="geometry" />
        </mxCell>
        <mxCell id="TipQKyZSvUJXhmq09o5P-55" value="&lt;font style=&quot;font-size: 18px;&quot;&gt;3&lt;/font&gt;" style="rounded=0;whiteSpace=wrap;html=1;" vertex="1" parent="1">
          <mxGeometry x="50" y="560" width="40" height="40" as="geometry" />
        </mxCell>
        <mxCell id="TipQKyZSvUJXhmq09o5P-56" value="Aciona VR1 por 3 segundos" style="rounded=0;whiteSpace=wrap;html=1;" vertex="1" parent="1">
          <mxGeometry x="110" y="560" width="120" height="40" as="geometry" />
        </mxCell>
        <mxCell id="TipQKyZSvUJXhmq09o5P-57" value="" style="endArrow=none;html=1;rounded=0;exitX=1;exitY=0.5;exitDx=0;exitDy=0;" edge="1" parent="1" source="TipQKyZSvUJXhmq09o5P-55">
          <mxGeometry width="50" height="50" relative="1" as="geometry">
            <mxPoint x="170" y="540" as="sourcePoint" />
            <mxPoint x="110" y="580" as="targetPoint" />
          </mxGeometry>
        </mxCell>
        <mxCell id="TipQKyZSvUJXhmq09o5P-58" value="" style="endArrow=classic;html=1;rounded=0;entryX=0.5;entryY=0;entryDx=0;entryDy=0;" edge="1" parent="1" target="TipQKyZSvUJXhmq09o5P-55">
          <mxGeometry width="50" height="50" relative="1" as="geometry">
            <mxPoint x="70" y="450" as="sourcePoint" />
            <mxPoint x="250" y="510" as="targetPoint" />
          </mxGeometry>
        </mxCell>
        <mxCell id="TipQKyZSvUJXhmq09o5P-59" value="Aciona VR5 por 5 segundos" style="rounded=0;whiteSpace=wrap;html=1;" vertex="1" parent="1">
          <mxGeometry x="110" y="600" width="120" height="40" as="geometry" />
        </mxCell>
        <mxCell id="TipQKyZSvUJXhmq09o5P-61" value="" style="endArrow=none;html=1;rounded=0;" edge="1" parent="1">
          <mxGeometry width="50" height="50" relative="1" as="geometry">
            <mxPoint x="50" y="720" as="sourcePoint" />
            <mxPoint x="490" y="720" as="targetPoint" />
            <Array as="points" />
          </mxGeometry>
        </mxCell>
        <mxCell id="TipQKyZSvUJXhmq09o5P-62" value="" style="endArrow=none;html=1;rounded=0;" edge="1" parent="1">
          <mxGeometry width="50" height="50" relative="1" as="geometry">
            <mxPoint x="50" y="730" as="sourcePoint" />
            <mxPoint x="490" y="730" as="targetPoint" />
            <Array as="points" />
          </mxGeometry>
        </mxCell>
        <mxCell id="TipQKyZSvUJXhmq09o5P-63" value="Aciona VR1 por 2 segundos" style="rounded=0;whiteSpace=wrap;html=1;" vertex="1" parent="1">
          <mxGeometry x="310" y="520" width="120" height="40" as="geometry" />
        </mxCell>
        <mxCell id="TipQKyZSvUJXhmq09o5P-65" value="Aciona VR2 por 2 segundos" style="rounded=0;whiteSpace=wrap;html=1;" vertex="1" parent="1">
          <mxGeometry x="510" y="520" width="120" height="40" as="geometry" />
        </mxCell>
        <mxCell id="TipQKyZSvUJXhmq09o5P-66" value="" style="endArrow=none;html=1;rounded=0;" edge="1" parent="1">
          <mxGeometry width="50" height="50" relative="1" as="geometry">
            <mxPoint x="50" y="490" as="sourcePoint" />
            <mxPoint x="90" y="490" as="targetPoint" />
          </mxGeometry>
        </mxCell>
        <mxCell id="TipQKyZSvUJXhmq09o5P-67" value="B1" style="text;html=1;align=center;verticalAlign=middle;whiteSpace=wrap;rounded=0;" vertex="1" parent="1">
          <mxGeometry x="90" y="480" width="60" height="20" as="geometry" />
        </mxCell>
        <mxCell id="TipQKyZSvUJXhmq09o5P-68" value="" style="endArrow=none;html=1;rounded=0;" edge="1" parent="1">
          <mxGeometry width="50" height="50" relative="1" as="geometry">
            <mxPoint x="250" y="490" as="sourcePoint" />
            <mxPoint x="290" y="490" as="targetPoint" />
          </mxGeometry>
        </mxCell>
        <mxCell id="TipQKyZSvUJXhmq09o5P-69" value="B2" style="text;html=1;align=center;verticalAlign=middle;whiteSpace=wrap;rounded=0;" vertex="1" parent="1">
          <mxGeometry x="290" y="480" width="60" height="20" as="geometry" />
        </mxCell>
        <mxCell id="TipQKyZSvUJXhmq09o5P-70" value="" style="endArrow=none;html=1;rounded=0;" edge="1" parent="1">
          <mxGeometry width="50" height="50" relative="1" as="geometry">
            <mxPoint x="450" y="490" as="sourcePoint" />
            <mxPoint x="490" y="490" as="targetPoint" />
          </mxGeometry>
        </mxCell>
        <mxCell id="TipQKyZSvUJXhmq09o5P-71" value="B3" style="text;html=1;align=center;verticalAlign=middle;whiteSpace=wrap;rounded=0;" vertex="1" parent="1">
          <mxGeometry x="490" y="480" width="60" height="20" as="geometry" />
        </mxCell>
        <mxCell id="TipQKyZSvUJXhmq09o5P-72" value="" style="endArrow=none;html=1;rounded=0;" edge="1" parent="1">
          <mxGeometry width="50" height="50" relative="1" as="geometry">
            <mxPoint x="50" y="680" as="sourcePoint" />
            <mxPoint x="90" y="680" as="targetPoint" />
          </mxGeometry>
        </mxCell>
        <mxCell id="TipQKyZSvUJXhmq09o5P-73" value="VR1&#39; &amp;amp; VR5&#39;" style="text;html=1;align=center;verticalAlign=middle;whiteSpace=wrap;rounded=0;" vertex="1" parent="1">
          <mxGeometry x="90" y="670" width="70" height="20" as="geometry" />
        </mxCell>
        <mxCell id="TipQKyZSvUJXhmq09o5P-74" value="" style="endArrow=none;html=1;rounded=0;" edge="1" parent="1">
          <mxGeometry width="50" height="50" relative="1" as="geometry">
            <mxPoint x="250" y="680" as="sourcePoint" />
            <mxPoint x="290" y="680" as="targetPoint" />
          </mxGeometry>
        </mxCell>
        <mxCell id="TipQKyZSvUJXhmq09o5P-75" value="VR1&#39; &amp;amp; VR2&#39; &amp;amp; VR5&#39;" style="text;html=1;align=center;verticalAlign=middle;whiteSpace=wrap;rounded=0;" vertex="1" parent="1">
          <mxGeometry x="290" y="670" width="110" height="20" as="geometry" />
        </mxCell>
        <mxCell id="TipQKyZSvUJXhmq09o5P-76" value="" style="endArrow=none;html=1;rounded=0;" edge="1" parent="1">
          <mxGeometry width="50" height="50" relative="1" as="geometry">
            <mxPoint x="450" y="680" as="sourcePoint" />
            <mxPoint x="490" y="680" as="targetPoint" />
          </mxGeometry>
        </mxCell>
        <mxCell id="TipQKyZSvUJXhmq09o5P-77" value="VR2&#39; &amp;amp; VR3&#39; &amp;amp; VR5&#39;" style="text;html=1;align=center;verticalAlign=middle;whiteSpace=wrap;rounded=0;" vertex="1" parent="1">
          <mxGeometry x="490" y="670" width="110" height="20" as="geometry" />
        </mxCell>
        <mxCell id="TipQKyZSvUJXhmq09o5P-78" value="" style="endArrow=classic;html=1;rounded=0;entryX=0.5;entryY=0;entryDx=0;entryDy=0;" edge="1" parent="1" target="TipQKyZSvUJXhmq09o5P-79">
          <mxGeometry width="50" height="50" relative="1" as="geometry">
            <mxPoint x="270" y="730" as="sourcePoint" />
            <mxPoint x="270" y="760" as="targetPoint" />
          </mxGeometry>
        </mxCell>
        <mxCell id="TipQKyZSvUJXhmq09o5P-79" value="&lt;font style=&quot;font-size: 18px;&quot;&gt;6&lt;/font&gt;" style="rounded=0;whiteSpace=wrap;html=1;" vertex="1" parent="1">
          <mxGeometry x="250" y="800" width="40" height="40" as="geometry" />
        </mxCell>
        <mxCell id="TipQKyZSvUJXhmq09o5P-83" value="" style="endArrow=none;html=1;rounded=0;" edge="1" parent="1">
          <mxGeometry width="50" height="50" relative="1" as="geometry">
            <mxPoint x="50" y="920" as="sourcePoint" />
            <mxPoint x="490" y="920" as="targetPoint" />
            <Array as="points" />
          </mxGeometry>
        </mxCell>
        <mxCell id="TipQKyZSvUJXhmq09o5P-84" value="" style="endArrow=none;html=1;rounded=0;exitX=0.5;exitY=1;exitDx=0;exitDy=0;" edge="1" parent="1" source="TipQKyZSvUJXhmq09o5P-55">
          <mxGeometry width="50" height="50" relative="1" as="geometry">
            <mxPoint x="350" y="730" as="sourcePoint" />
            <mxPoint x="70" y="720" as="targetPoint" />
          </mxGeometry>
        </mxCell>
        <mxCell id="TipQKyZSvUJXhmq09o5P-85" value="" style="endArrow=none;html=1;rounded=0;exitX=0.5;exitY=1;exitDx=0;exitDy=0;" edge="1" parent="1">
          <mxGeometry width="50" height="50" relative="1" as="geometry">
            <mxPoint x="269.5" y="600" as="sourcePoint" />
            <mxPoint x="269.5" y="720" as="targetPoint" />
          </mxGeometry>
        </mxCell>
        <mxCell id="TipQKyZSvUJXhmq09o5P-86" value="" style="endArrow=none;html=1;rounded=0;exitX=0.5;exitY=1;exitDx=0;exitDy=0;" edge="1" parent="1">
          <mxGeometry width="50" height="50" relative="1" as="geometry">
            <mxPoint x="469.5" y="600" as="sourcePoint" />
            <mxPoint x="469.5" y="720" as="targetPoint" />
          </mxGeometry>
        </mxCell>
        <mxCell id="TipQKyZSvUJXhmq09o5P-87" value="" style="endArrow=none;html=1;rounded=0;exitX=0.5;exitY=1;exitDx=0;exitDy=0;" edge="1" parent="1">
          <mxGeometry width="50" height="50" relative="1" as="geometry">
            <mxPoint x="269.5" y="840" as="sourcePoint" />
            <mxPoint x="270" y="920" as="targetPoint" />
          </mxGeometry>
        </mxCell>
        <mxCell id="TipQKyZSvUJXhmq09o5P-88" value="" style="endArrow=none;html=1;rounded=0;" edge="1" parent="1">
          <mxGeometry width="50" height="50" relative="1" as="geometry">
            <mxPoint x="50" y="930" as="sourcePoint" />
            <mxPoint x="490" y="930" as="targetPoint" />
            <Array as="points" />
          </mxGeometry>
        </mxCell>
        <mxCell id="TipQKyZSvUJXhmq09o5P-94" value="" style="endArrow=none;html=1;rounded=0;" edge="1" parent="1">
          <mxGeometry width="50" height="50" relative="1" as="geometry">
            <mxPoint x="50" y="970" as="sourcePoint" />
            <mxPoint x="90" y="970" as="targetPoint" />
          </mxGeometry>
        </mxCell>
        <mxCell id="TipQKyZSvUJXhmq09o5P-95" value="A1" style="text;html=1;align=center;verticalAlign=middle;whiteSpace=wrap;rounded=0;" vertex="1" parent="1">
          <mxGeometry x="90" y="960" width="60" height="20" as="geometry" />
        </mxCell>
        <mxCell id="TipQKyZSvUJXhmq09o5P-98" value="" style="endArrow=none;html=1;rounded=0;" edge="1" parent="1">
          <mxGeometry width="50" height="50" relative="1" as="geometry">
            <mxPoint x="70" y="930" as="sourcePoint" />
            <mxPoint x="70" y="1200" as="targetPoint" />
          </mxGeometry>
        </mxCell>
        <mxCell id="TipQKyZSvUJXhmq09o5P-99" value="&lt;font style=&quot;font-size: 18px;&quot;&gt;7&lt;/font&gt;" style="rounded=0;whiteSpace=wrap;html=1;" vertex="1" parent="1">
          <mxGeometry x="250" y="1040" width="40" height="40" as="geometry" />
        </mxCell>
        <mxCell id="TipQKyZSvUJXhmq09o5P-100" value="Aciona VR4 por 4 segundos" style="rounded=0;whiteSpace=wrap;html=1;" vertex="1" parent="1">
          <mxGeometry x="310" y="1040" width="120" height="40" as="geometry" />
        </mxCell>
        <mxCell id="TipQKyZSvUJXhmq09o5P-101" value="" style="endArrow=none;html=1;rounded=0;exitX=1;exitY=0.5;exitDx=0;exitDy=0;" edge="1" parent="1" source="TipQKyZSvUJXhmq09o5P-99">
          <mxGeometry width="50" height="50" relative="1" as="geometry">
            <mxPoint x="370" y="1020" as="sourcePoint" />
            <mxPoint x="310" y="1060" as="targetPoint" />
          </mxGeometry>
        </mxCell>
        <mxCell id="TipQKyZSvUJXhmq09o5P-102" value="" style="endArrow=classic;html=1;rounded=0;entryX=0.5;entryY=0;entryDx=0;entryDy=0;" edge="1" parent="1" target="TipQKyZSvUJXhmq09o5P-99">
          <mxGeometry width="50" height="50" relative="1" as="geometry">
            <mxPoint x="270" y="930" as="sourcePoint" />
            <mxPoint x="450" y="990" as="targetPoint" />
          </mxGeometry>
        </mxCell>
        <mxCell id="TipQKyZSvUJXhmq09o5P-104" value="" style="endArrow=none;html=1;rounded=0;" edge="1" parent="1">
          <mxGeometry width="50" height="50" relative="1" as="geometry">
            <mxPoint x="250" y="970" as="sourcePoint" />
            <mxPoint x="290" y="970" as="targetPoint" />
          </mxGeometry>
        </mxCell>
        <mxCell id="TipQKyZSvUJXhmq09o5P-105" value="A2" style="text;html=1;align=center;verticalAlign=middle;whiteSpace=wrap;rounded=0;" vertex="1" parent="1">
          <mxGeometry x="290" y="960" width="60" height="20" as="geometry" />
        </mxCell>
        <mxCell id="TipQKyZSvUJXhmq09o5P-106" value="" style="endArrow=none;html=1;rounded=0;" edge="1" parent="1">
          <mxGeometry width="50" height="50" relative="1" as="geometry">
            <mxPoint x="250" y="1160" as="sourcePoint" />
            <mxPoint x="290" y="1160" as="targetPoint" />
          </mxGeometry>
        </mxCell>
        <mxCell id="TipQKyZSvUJXhmq09o5P-107" value="VR4&#39;" style="text;html=1;align=center;verticalAlign=middle;whiteSpace=wrap;rounded=0;" vertex="1" parent="1">
          <mxGeometry x="290" y="1150" width="70" height="20" as="geometry" />
        </mxCell>
        <mxCell id="TipQKyZSvUJXhmq09o5P-108" value="" style="endArrow=none;html=1;rounded=0;exitX=0.5;exitY=1;exitDx=0;exitDy=0;" edge="1" parent="1" source="TipQKyZSvUJXhmq09o5P-99">
          <mxGeometry width="50" height="50" relative="1" as="geometry">
            <mxPoint x="550" y="1210" as="sourcePoint" />
            <mxPoint x="270" y="1200" as="targetPoint" />
          </mxGeometry>
        </mxCell>
        <mxCell id="TipQKyZSvUJXhmq09o5P-109" value="&lt;font style=&quot;font-size: 18px;&quot;&gt;8&lt;/font&gt;" style="rounded=0;whiteSpace=wrap;html=1;" vertex="1" parent="1">
          <mxGeometry x="450" y="1040" width="40" height="40" as="geometry" />
        </mxCell>
        <mxCell id="TipQKyZSvUJXhmq09o5P-110" value="Aciona VR4 por 6 segundos" style="rounded=0;whiteSpace=wrap;html=1;" vertex="1" parent="1">
          <mxGeometry x="510" y="1040" width="120" height="40" as="geometry" />
        </mxCell>
        <mxCell id="TipQKyZSvUJXhmq09o5P-111" value="" style="endArrow=none;html=1;rounded=0;exitX=1;exitY=0.5;exitDx=0;exitDy=0;" edge="1" parent="1" source="TipQKyZSvUJXhmq09o5P-109">
          <mxGeometry width="50" height="50" relative="1" as="geometry">
            <mxPoint x="570" y="1020" as="sourcePoint" />
            <mxPoint x="510" y="1060" as="targetPoint" />
          </mxGeometry>
        </mxCell>
        <mxCell id="TipQKyZSvUJXhmq09o5P-112" value="" style="endArrow=classic;html=1;rounded=0;entryX=0.5;entryY=0;entryDx=0;entryDy=0;" edge="1" parent="1" target="TipQKyZSvUJXhmq09o5P-109">
          <mxGeometry width="50" height="50" relative="1" as="geometry">
            <mxPoint x="470" y="930" as="sourcePoint" />
            <mxPoint x="650" y="990" as="targetPoint" />
          </mxGeometry>
        </mxCell>
        <mxCell id="TipQKyZSvUJXhmq09o5P-113" value="" style="endArrow=none;html=1;rounded=0;" edge="1" parent="1">
          <mxGeometry width="50" height="50" relative="1" as="geometry">
            <mxPoint x="450" y="970" as="sourcePoint" />
            <mxPoint x="490" y="970" as="targetPoint" />
          </mxGeometry>
        </mxCell>
        <mxCell id="TipQKyZSvUJXhmq09o5P-114" value="A3" style="text;html=1;align=center;verticalAlign=middle;whiteSpace=wrap;rounded=0;" vertex="1" parent="1">
          <mxGeometry x="490" y="960" width="60" height="20" as="geometry" />
        </mxCell>
        <mxCell id="TipQKyZSvUJXhmq09o5P-115" value="" style="endArrow=none;html=1;rounded=0;" edge="1" parent="1">
          <mxGeometry width="50" height="50" relative="1" as="geometry">
            <mxPoint x="450" y="1160" as="sourcePoint" />
            <mxPoint x="490" y="1160" as="targetPoint" />
          </mxGeometry>
        </mxCell>
        <mxCell id="TipQKyZSvUJXhmq09o5P-116" value="VR4&#39;" style="text;html=1;align=center;verticalAlign=middle;whiteSpace=wrap;rounded=0;" vertex="1" parent="1">
          <mxGeometry x="490" y="1150" width="70" height="20" as="geometry" />
        </mxCell>
        <mxCell id="TipQKyZSvUJXhmq09o5P-117" value="" style="endArrow=none;html=1;rounded=0;exitX=0.5;exitY=1;exitDx=0;exitDy=0;" edge="1" parent="1" source="TipQKyZSvUJXhmq09o5P-109">
          <mxGeometry width="50" height="50" relative="1" as="geometry">
            <mxPoint x="750" y="1210" as="sourcePoint" />
            <mxPoint x="470" y="1200" as="targetPoint" />
          </mxGeometry>
        </mxCell>
        <mxCell id="TipQKyZSvUJXhmq09o5P-118" value="" style="endArrow=none;html=1;rounded=0;" edge="1" parent="1">
          <mxGeometry width="50" height="50" relative="1" as="geometry">
            <mxPoint x="50" y="1200" as="sourcePoint" />
            <mxPoint x="490" y="1200" as="targetPoint" />
            <Array as="points" />
          </mxGeometry>
        </mxCell>
        <mxCell id="TipQKyZSvUJXhmq09o5P-119" value="" style="endArrow=none;html=1;rounded=0;" edge="1" parent="1">
          <mxGeometry width="50" height="50" relative="1" as="geometry">
            <mxPoint x="50" y="1210" as="sourcePoint" />
            <mxPoint x="490" y="1210" as="targetPoint" />
            <Array as="points" />
          </mxGeometry>
        </mxCell>
        <mxCell id="TipQKyZSvUJXhmq09o5P-120" value="" style="endArrow=classic;html=1;rounded=0;" edge="1" parent="1">
          <mxGeometry width="50" height="50" relative="1" as="geometry">
            <mxPoint x="270" y="1210" as="sourcePoint" />
            <mxPoint x="270" y="1280" as="targetPoint" />
          </mxGeometry>
        </mxCell>
        <mxCell id="TipQKyZSvUJXhmq09o5P-121" value="&lt;font style=&quot;font-size: 18px;&quot;&gt;9&lt;/font&gt;" style="rounded=0;whiteSpace=wrap;html=1;" vertex="1" parent="1">
          <mxGeometry x="250" y="1280" width="40" height="40" as="geometry" />
        </mxCell>
        <mxCell id="TipQKyZSvUJXhmq09o5P-123" value="" style="endArrow=none;html=1;rounded=0;exitX=1;exitY=0.5;exitDx=0;exitDy=0;" edge="1" parent="1" source="TipQKyZSvUJXhmq09o5P-121">
          <mxGeometry width="50" height="50" relative="1" as="geometry">
            <mxPoint x="370" y="1260" as="sourcePoint" />
            <mxPoint x="310" y="1300" as="targetPoint" />
          </mxGeometry>
        </mxCell>
        <mxCell id="TipQKyZSvUJXhmq09o5P-124" value="" style="endArrow=classic;html=1;rounded=0;exitX=0.5;exitY=1;exitDx=0;exitDy=0;entryX=0;entryY=0.5;entryDx=0;entryDy=0;" edge="1" parent="1" source="TipQKyZSvUJXhmq09o5P-121" target="TipQKyZSvUJXhmq09o5P-2">
          <mxGeometry width="50" height="50" relative="1" as="geometry">
            <mxPoint x="350" y="1270" as="sourcePoint" />
            <mxPoint x="160" y="160" as="targetPoint" />
            <Array as="points">
              <mxPoint x="270" y="1360" />
              <mxPoint x="10" y="1360" />
              <mxPoint x="10" y="60" />
            </Array>
          </mxGeometry>
        </mxCell>
        <mxCell id="TipQKyZSvUJXhmq09o5P-125" value="" style="endArrow=none;html=1;rounded=0;" edge="1" parent="1">
          <mxGeometry width="50" height="50" relative="1" as="geometry">
            <mxPoint x="250" y="1340" as="sourcePoint" />
            <mxPoint x="290" y="1340" as="targetPoint" />
          </mxGeometry>
        </mxCell>
        <mxCell id="TipQKyZSvUJXhmq09o5P-126" value="SC&#39;" style="text;html=1;align=center;verticalAlign=middle;whiteSpace=wrap;rounded=0;" vertex="1" parent="1">
          <mxGeometry x="290" y="1330" width="70" height="20" as="geometry" />
        </mxCell>
        <mxCell id="TipQKyZSvUJXhmq09o5P-127" value="Desliga CP, CL, CHOC, AMRG, DOCE e EXTR." style="rounded=0;whiteSpace=wrap;html=1;" vertex="1" parent="1">
          <mxGeometry x="310" y="1280" width="170" height="40" as="geometry" />
        </mxCell>
      </root>
    </mxGraphModel>
  </diagram>
</mxfile>
